<?xml version="1.0" encoding="utf-8"?>
<!-- Generator: Adobe Illustrator 16.0.0, SVG Export Plug-In . SVG Version: 6.00 Build 0)  -->
<!DOCTYPE svg PUBLIC "-//W3C//DTD SVG 1.1//EN" "http://www.w3.org/Graphics/SVG/1.1/DTD/svg11.dtd">
<svg version="1.1" id="Layer_1" xmlns="http://www.w3.org/2000/svg" xmlns:xlink="http://www.w3.org/1999/xlink" x="0px" y="0px"
	 width="432px" height="432px" viewBox="0 0 432 432" enable-background="new 0 0 432 432" xml:space="preserve">
<g id="Ac718U_1_">
	<g>
		<g>
			<path fill="#FFFFFF" d="M432.48,432.48c-144,0-288,0-432,0c0-144,0-288,0-432c144,0,288,0,432,0
				C432.48,144.48,432.48,288.48,432.48,432.48z M9.129,216.551c-0.248,10.885-0.096,21.762,1.951,32.488
				c1.743,9.137,3.428,18.314,5.828,27.289c4.044,15.117,10.269,29.404,18.009,43.01c7.607,13.373,16.561,25.814,27.095,36.996
				c7.036,7.467,14.455,14.652,22.293,21.266c6.991,5.898,14.618,11.102,22.277,16.135c11.499,7.559,23.911,13.414,36.85,18.09
				c11.27,4.074,22.733,7.498,34.645,9.141c7.632,1.053,15.279,2.596,22.939,2.717c13.447,0.211,26.943,0.963,40.367-0.805
				c5.145-0.678,10.354-1.02,15.434-2.02c11.975-2.357,23.723-5.568,35.148-9.947c13.08-5.012,25.512-11.258,37.23-18.92
				c8.902-5.82,17.531-12.021,25.176-19.453c7.078-6.879,14.451-13.541,20.828-21.033c6.744-7.924,12.791-16.5,18.557-25.182
				c7.611-11.457,13.426-23.9,18.078-36.85c4.053-11.277,7.533-22.73,9.125-34.648c1.104-8.266,2.559-16.557,2.725-24.859
				c0.256-12.805,0.918-25.663-0.805-38.446c-0.693-5.144-1.025-10.354-2.027-15.433c-2.361-11.975-5.594-23.72-9.955-35.146
				c-4.967-13.014-11.244-25.345-18.777-37.046c-6.188-9.611-13.113-18.689-20.902-27.025c-6.258-6.698-12.715-13.306-19.744-19.162
				c-7.877-6.563-16.326-12.484-24.832-18.235c-11.541-7.803-24.15-13.609-37.23-18.35c-11.266-4.084-22.729-7.508-34.645-9.144
				c-7.396-1.016-14.793-2.491-22.221-2.713c-11.715-0.349-23.464-0.065-35.178,0.437c-7.058,0.302-14.142,1.167-21.101,2.413
				c-12.25,2.193-24.222,5.599-35.832,10.099c-13.041,5.055-25.495,11.32-37.17,19.066c-8.664,5.749-17.156,11.754-24.577,19.069
				c-7.982,7.867-16.118,15.638-23.438,24.098c-5.822,6.729-10.666,14.331-15.68,21.726c-7.783,11.479-13.611,24-18.357,36.977
				c-4.137,11.313-7.657,22.862-9.192,34.87c-1.148,8.98-2.057,17.997-2.836,27.019C8.854,208.848,9.129,212.711,9.129,216.551z"/>
			<path fill-rule="evenodd" clip-rule="evenodd" d="M9.129,216.551c0-3.84-0.274-7.703,0.055-11.514
				c0.779-9.021,1.688-18.038,2.836-27.019c1.535-12.008,5.056-23.557,9.192-34.87c4.746-12.977,10.574-25.497,18.357-36.977
				c5.014-7.395,9.857-14.997,15.68-21.726c7.32-8.46,15.456-16.23,23.438-24.098c7.421-7.315,15.913-13.32,24.577-19.069
				c11.675-7.746,24.129-14.012,37.17-19.066c11.61-4.5,23.582-7.905,35.832-10.099c6.959-1.246,14.043-2.111,21.101-2.413
				c11.714-0.502,23.463-0.785,35.178-0.437c7.428,0.222,14.824,1.697,22.221,2.713c11.916,1.636,23.379,5.06,34.645,9.144
				c13.08,4.74,25.689,10.547,37.23,18.35c8.506,5.751,16.955,11.672,24.832,18.235c7.029,5.856,13.486,12.464,19.744,19.162
				c7.789,8.336,14.715,17.414,20.902,27.025c7.533,11.701,13.811,24.032,18.777,37.046c4.361,11.427,7.594,23.172,9.955,35.146
				c1.002,5.079,1.334,10.289,2.027,15.433c1.723,12.783,1.061,25.642,0.805,38.446c-0.166,8.303-1.621,16.594-2.725,24.859
				c-1.592,11.918-5.072,23.371-9.125,34.648c-4.652,12.949-10.467,25.393-18.078,36.85c-5.766,8.682-11.812,17.258-18.557,25.182
				c-6.377,7.492-13.75,14.154-20.828,21.033c-7.645,7.432-16.273,13.633-25.176,19.453c-11.719,7.662-24.15,13.908-37.23,18.92
				c-11.426,4.379-23.174,7.59-35.148,9.947c-5.08,1-10.289,1.342-15.434,2.02c-13.424,1.768-26.92,1.016-40.367,0.805
				c-7.66-0.121-15.308-1.664-22.939-2.717c-11.911-1.643-23.375-5.066-34.645-9.141c-12.938-4.676-25.351-10.531-36.85-18.09
				c-7.659-5.033-15.286-10.236-22.277-16.135c-7.838-6.613-15.257-13.799-22.293-21.266
				c-10.534-11.182-19.487-23.623-27.095-36.996c-7.74-13.605-13.965-27.893-18.009-43.01c-2.4-8.975-4.085-18.152-5.828-27.289
				C9.033,238.312,8.881,227.436,9.129,216.551z M399.818,216.389c-0.629-6.69-1.014-13.415-1.947-20.062
				c-1.059-7.516-2.068-15.112-4.082-22.403c-2.549-9.239-5.891-18.278-9.254-27.269c-3.83-10.242-8.99-19.887-15.131-28.907
				c-5.031-7.39-10.34-14.657-16.191-21.4c-5.742-6.618-11.992-12.894-18.625-18.618c-8.127-7.013-16.969-13.133-26.346-18.49
				c-10.379-5.931-21.084-11.101-32.354-15.037c-10.717-3.744-21.629-6.847-32.945-8.224c-7.188-0.875-14.379-1.88-21.598-2.317
				c-9.998-0.606-19.972,0.311-29.84,1.912c-6.399,1.038-12.83,2.214-19.035,4.043c-8.828,2.603-17.655,5.403-26.125,8.971
				c-8.429,3.552-16.609,7.816-24.544,12.386c-9.193,5.294-17.565,11.809-25.697,18.678c-7.741,6.539-14.702,13.799-20.873,21.712
				c-5.765,7.392-10.799,15.381-15.822,23.316c-6.183,9.77-10.87,20.31-14.764,31.18c-3.671,10.246-6.772,20.671-8.212,31.494
				c-1.088,8.188-2.179,16.392-2.744,24.625c-0.363,5.292,0.141,10.654,0.409,15.977c0.188,3.703,0.354,7.443,1.025,11.076
				c1.393,7.531,2.975,15.035,4.738,22.488c2.493,10.531,6.189,20.688,10.911,30.406c3.561,7.328,7.522,14.48,11.666,21.5
				c5.773,9.781,12.701,18.748,20.498,27.014c3.26,3.455,6.581,6.871,10.096,10.061c4.147,3.764,8.33,7.547,12.868,10.805
				c6.097,4.379,12.47,8.393,18.867,12.332c9.841,6.062,20.322,10.834,31.205,14.705c11.074,3.939,22.34,7.189,34.042,8.641
				c7.187,0.891,14.378,1.912,21.599,2.312c9.671,0.535,19.3-0.373,28.896-1.795c9.389-1.393,18.584-3.502,27.662-6.232
				c14.252-4.289,27.693-10.379,40.568-17.814c13.16-7.602,25.209-16.711,35.969-27.371c6.033-5.979,11.316-12.752,16.646-19.4
				c10.385-12.953,18.119-27.506,24.396-42.783c5.025-12.234,8.627-24.936,10.83-38.041
				C398.223,236.096,399.396,226.33,399.818,216.389z"/>
			<path fill-rule="evenodd" clip-rule="evenodd" fill="#FFFFFF" d="M399.818,216.389c-0.422,9.941-1.596,19.707-3.236,29.467
				c-2.203,13.105-5.805,25.807-10.83,38.041c-6.277,15.277-14.012,29.83-24.396,42.783c-5.33,6.648-10.613,13.422-16.646,19.4
				c-10.76,10.66-22.809,19.77-35.969,27.371c-12.875,7.436-26.316,13.525-40.568,17.814c-9.078,2.73-18.273,4.84-27.662,6.232
				c-9.596,1.422-19.225,2.33-28.896,1.795c-7.221-0.4-14.412-1.422-21.599-2.312c-11.702-1.451-22.968-4.701-34.042-8.641
				c-10.883-3.871-21.364-8.643-31.205-14.705c-6.397-3.939-12.771-7.953-18.867-12.332c-4.538-3.258-8.721-7.041-12.868-10.805
				c-3.515-3.189-6.836-6.605-10.096-10.061c-7.797-8.266-14.725-17.232-20.498-27.014c-4.144-7.02-8.105-14.172-11.666-21.5
				c-4.722-9.719-8.418-19.875-10.911-30.406c-1.764-7.453-3.346-14.957-4.738-22.488c-0.672-3.633-0.838-7.373-1.025-11.076
				c-0.269-5.322-0.772-10.685-0.409-15.977c0.565-8.233,1.656-16.438,2.744-24.625c1.439-10.823,4.541-21.248,8.212-31.494
				c3.894-10.87,8.581-21.41,14.764-31.18c5.023-7.936,10.058-15.925,15.822-23.316c6.171-7.913,13.132-15.173,20.873-21.712
				c8.132-6.869,16.504-13.384,25.697-18.678c7.935-4.569,16.115-8.834,24.544-12.386c8.47-3.567,17.297-6.368,26.125-8.971
				c6.205-1.829,12.636-3.005,19.035-4.043c9.868-1.602,19.842-2.519,29.84-1.912c7.219,0.438,14.41,1.442,21.598,2.317
				c11.316,1.377,22.229,4.479,32.945,8.224c11.27,3.937,21.975,9.106,32.354,15.037c9.377,5.357,18.219,11.478,26.346,18.49
				c6.633,5.725,12.883,12,18.625,18.618c5.852,6.743,11.16,14.011,16.191,21.4c6.141,9.021,11.301,18.665,15.131,28.907
				c3.363,8.99,6.705,18.029,9.254,27.269c2.014,7.291,3.023,14.888,4.082,22.403C398.805,202.974,399.189,209.698,399.818,216.389z
				 M215.776,301.059c-3.524-5.389-6.882-10.488-10.202-15.613c-6.687-10.32-13.323-20.672-20.034-30.977
				c-10.86-16.674-21.76-33.322-32.649-49.977c-6.474-9.899-12.98-19.777-19.435-29.689c-5.17-7.942-10.307-15.908-15.394-23.904
				c-0.779-1.225-1.649-1.657-3.08-1.646c-7.92,0.064-15.84,0.026-23.76,0.04c-0.603,0.001-1.206,0.129-2.142,0.236
				c0.34,0.846,0.496,1.514,0.846,2.057c3.813,5.928,7.661,11.834,11.494,17.75c6.729,10.387,13.427,20.794,20.188,31.159
				c11.813,18.11,23.683,36.185,35.496,54.296c6.762,10.365,13.437,20.787,20.191,31.158c9.964,15.293,19.987,30.547,29.934,45.852
				c2.143,3.297,4.676,4.984,8.947,4.84c3.584-0.121,5.752-1.406,7.551-4.195c5.939-9.219,11.918-18.414,17.918-27.594
				c9.428-14.428,18.91-28.822,28.322-43.26c6.418-9.842,12.725-19.756,19.135-29.602c11.457-17.594,22.955-35.161,34.436-52.741
				c5.996-9.183,11.994-18.362,17.961-27.563c0.396-0.612,0.533-1.392,0.906-2.402c-7.027,0-13.533,0.411-19.963-0.121
				c-5.908-0.489-9.164,1.469-12.301,6.719c-8.434,14.107-17.779,27.669-26.752,41.453c-8.332,12.803-16.637,25.625-24.986,38.416
				c-8.35,12.793-16.756,25.551-25.111,38.34C227.471,283.004,221.693,291.945,215.776,301.059z"/>
			<path fill-rule="evenodd" clip-rule="evenodd" d="M215.776,301.059c5.917-9.113,11.694-18.055,17.517-26.969
				c8.355-12.789,16.762-25.547,25.111-38.34c8.35-12.791,16.654-25.613,24.986-38.416c8.973-13.784,18.318-27.346,26.752-41.453
				c3.137-5.25,6.393-7.208,12.301-6.719c6.43,0.532,12.936,0.121,19.963,0.121c-0.373,1.011-0.51,1.79-0.906,2.402
				c-5.967,9.201-11.965,18.381-17.961,27.563c-11.48,17.58-22.979,35.147-34.436,52.741c-6.41,9.846-12.717,19.76-19.135,29.602
				c-9.412,14.438-18.895,28.832-28.322,43.26c-6,9.18-11.979,18.375-17.918,27.594c-1.799,2.789-3.967,4.074-7.551,4.195
				c-4.271,0.145-6.805-1.543-8.947-4.84c-9.946-15.305-19.97-30.559-29.934-45.852c-6.755-10.371-13.43-20.793-20.191-31.158
				c-11.813-18.111-23.683-36.186-35.496-54.296c-6.762-10.365-13.459-20.772-20.188-31.159c-3.833-5.916-7.681-11.822-11.494-17.75
				c-0.35-0.543-0.506-1.211-0.846-2.057c0.936-0.107,1.539-0.235,2.142-0.236c7.92-0.014,15.84,0.024,23.76-0.04
				c1.431-0.012,2.301,0.421,3.08,1.646c5.087,7.996,10.224,15.962,15.394,23.904c6.454,9.912,12.961,19.79,19.435,29.689
				c10.89,16.654,21.789,33.303,32.649,49.977c6.711,10.305,13.348,20.656,20.034,30.977
				C208.895,290.57,212.252,295.67,215.776,301.059z"/>
		</g>
	</g>
</g>
</svg>
